# xmcd CD database file
#
# Track frame offsets:
#	150
#	12593
#	26628
#	41152
#	58007
#	71298
#	85033
#	97430
#	107173
#	118280
#	128383
#	139298
#	152763
#	159720
#	171700
#	182593
#	195735
#	208033
#
# Disc length: 2887 seconds
#
# Revision: 2
# Processed by: cddbd v1.5.1PL0 Copyright (c) Steve Scherf et al.
# Submitted via: CDex 1.51
#
DISCID=0c0b4512
DTITLE=Selection Of FRANK SINATRA - CD I Swing
DYEAR=1900
DGENRE=
TTITLE0=Anything Goes
TTITLE1=Cheek To Cheek
TTITLE2=The Lady Is A Tramp
TTITLE3=I´ve Got You Under My Skin
TTITLE4=You Make Me Feel So Young
TTITLE5=Learnin´ The Blues
TTITLE6=How Could You Do A Thing Like That To Me
TTITLE7=All Of Me
TTITLE8=Get Happy
TTITLE9=Taking A Chance On Love
TTITLE10=Jeepers Creepers
TTITLE11=The Tender Trap
TTITLE12=Should I
TTITLE13=Something´s Gotta Give
TTITLE14=Junt In Time
TTITLE15=Brazil
TTITLE16=On The Sunny Side Of The Street
TTITLE17=Lover
EXTD=
EXTT0=
EXTT1=
EXTT2=
EXTT3=
EXTT4=
EXTT5=
EXTT6=
EXTT7=
EXTT8=
EXTT9=
EXTT10=
EXTT11=
EXTT12=
EXTT13=
EXTT14=
EXTT15=
EXTT16=
EXTT17=
PLAYORDER=
